<?xml version="1.0" encoding="UTF-8" standalone="no"?>
<svg
   xmlns:dc="http://purl.org/dc/elements/1.1/"
   xmlns:cc="http://creativecommons.org/ns#"
   xmlns:rdf="http://www.w3.org/1999/02/22-rdf-syntax-ns#"
   xmlns:svg="http://www.w3.org/2000/svg"
   xmlns="http://www.w3.org/2000/svg"
   xmlns:sodipodi="http://sodipodi.sourceforge.net/DTD/sodipodi-0.dtd"
   xmlns:inkscape="http://www.inkscape.org/namespaces/inkscape"
   enable-background="new 0 0 128 128"
   id="Social_Icons"
   version="1.1"
   viewBox="0 0 128 128"
   xml:space="preserve"
   sodipodi:docname="github.svg"
   inkscape:version="0.92.4 5da689c313, 2019-01-14"><metadata
     id="metadata1587"><rdf:RDF><cc:Work
         rdf:about=""><dc:format>image/svg+xml</dc:format><dc:type
           rdf:resource="http://purl.org/dc/dcmitype/StillImage" /><dc:title></dc:title></cc:Work></rdf:RDF></metadata><defs
     id="defs1585" /><sodipodi:namedview
     pagecolor="#ffffff"
     bordercolor="#666666"
     borderopacity="1"
     objecttolerance="10"
     gridtolerance="10"
     guidetolerance="10"
     inkscape:pageopacity="0"
     inkscape:pageshadow="2"
     inkscape:window-width="1914"
     inkscape:window-height="1023"
     id="namedview1583"
     showgrid="false"
     inkscape:pagecheckerboard="true"
     inkscape:zoom="3.6875"
     inkscape:cx="56.573835"
     inkscape:cy="52.860479"
     inkscape:window-x="1920"
     inkscape:window-y="54"
     inkscape:window-maximized="0"
     inkscape:current-layer="layer6" /><g
     inkscape:groupmode="layer"
     id="layer5"
     inkscape:label="bg"
     style="display:inline"><circle
       style="opacity:1;vector-effect:none;fill:#ffffff;fill-opacity:1;fill-rule:evenodd;stroke:none;stroke-width:89.84412384;stroke-linecap:round;stroke-linejoin:miter;stroke-miterlimit:20;stroke-dasharray:none;stroke-dashoffset:0;stroke-opacity:0.76076529;paint-order:stroke fill markers"
       id="path2136"
       cx="64"
       cy="64"
       r="63.5" /></g><g
     inkscape:groupmode="layer"
     id="layer6"
     inkscape:label="img"><g
       id="_x31__stroke"
       transform="matrix(0.67650953,0,0,0.67650953,20.70339,20.70339)"><g
         id="Github_1_"><rect
           style="clip-rule:evenodd;fill:none;fill-rule:evenodd"
           y="0"
           x="0"
           height="128"
           width="128"
           id="rect1577" /><path
           style="clip-rule:evenodd;fill:#3e75c3;fill-rule:evenodd"
           inkscape:connector-curvature="0"
           d="M 63.996,1.333 C 28.656,1.333 0,30.099 0,65.591 c 0,28.384 18.336,52.467 43.772,60.965 3.2,0.59 4.368,-1.394 4.368,-3.096 0,-1.526 -0.056,-5.566 -0.088,-10.927 -17.804,3.883 -21.56,-8.614 -21.56,-8.614 -2.908,-7.421 -7.104,-9.397 -7.104,-9.397 -5.812,-3.988 0.44,-3.907 0.44,-3.907 6.42,0.454 9.8,6.622 9.8,6.622 5.712,9.819 14.98,6.984 18.628,5.337 0.58,-4.152 2.236,-6.984 4.064,-8.59 -14.212,-1.622 -29.152,-7.132 -29.152,-31.753 0,-7.016 2.492,-12.75 6.588,-17.244 -0.66,-1.626 -2.856,-8.156 0.624,-17.003 0,0 5.376,-1.727 17.6,6.586 5.108,-1.426 10.58,-2.136 16.024,-2.165 5.436,0.028 10.912,0.739 16.024,2.165 12.216,-8.313 17.58,-6.586 17.58,-6.586 3.492,8.847 1.296,15.377 0.636,17.003 4.104,4.494 6.58,10.228 6.58,17.244 0,24.681 -14.964,30.115 -29.22,31.705 2.296,1.984 4.344,5.903 4.344,11.899 0,8.59 -0.08,15.517 -0.08,17.626 0,1.719 1.152,3.719 4.4,3.088 C 109.68,118.034 128,93.967 128,65.591 128,30.099 99.344,1.333 63.996,1.333"
           id="Github" /></g></g></g></svg>