<?xml version="1.0" encoding="UTF-8" standalone="no"?>
<svg
   xmlns:dc="http://purl.org/dc/elements/1.1/"
   xmlns:cc="http://creativecommons.org/ns#"
   xmlns:rdf="http://www.w3.org/1999/02/22-rdf-syntax-ns#"
   xmlns:svg="http://www.w3.org/2000/svg"
   xmlns="http://www.w3.org/2000/svg"
   xmlns:sodipodi="http://sodipodi.sourceforge.net/DTD/sodipodi-0.dtd"
   xmlns:inkscape="http://www.inkscape.org/namespaces/inkscape"
   enable-background="new 0 0 128 128"
   id="Social_Icons"
   version="1.1"
   viewBox="0 0 128 128"
   xml:space="preserve"
   sodipodi:docname="twitter.svg"
   inkscape:version="0.92.4 5da689c313, 2019-01-14"><metadata
     id="metadata962"><rdf:RDF><cc:Work
         rdf:about=""><dc:format>image/svg+xml</dc:format><dc:type
           rdf:resource="http://purl.org/dc/dcmitype/StillImage" /><dc:title></dc:title></cc:Work></rdf:RDF></metadata><defs
     id="defs960" /><sodipodi:namedview
     pagecolor="#ffffff"
     bordercolor="#666666"
     borderopacity="1"
     objecttolerance="10"
     gridtolerance="10"
     guidetolerance="10"
     inkscape:pageopacity="0"
     inkscape:pageshadow="2"
     inkscape:window-width="1914"
     inkscape:window-height="1023"
     id="namedview958"
     showgrid="false"
     inkscape:pagecheckerboard="true"
     inkscape:zoom="5.2149125"
     inkscape:cx="70.337608"
     inkscape:cy="60.431189"
     inkscape:window-x="1920"
     inkscape:window-y="54"
     inkscape:window-maximized="0"
     inkscape:current-layer="layer4" /><g
     inkscape:groupmode="layer"
     id="layer3"
     inkscape:label="bg"
     style="opacity:1"><circle
       style="opacity:1;vector-effect:none;fill:#ffffff;fill-opacity:1;fill-rule:evenodd;stroke:none;stroke-width:82.09931183;stroke-linecap:round;stroke-linejoin:miter;stroke-miterlimit:20;stroke-dasharray:none;stroke-dashoffset:0;stroke-opacity:0.76076529;paint-order:stroke fill markers"
       id="path1533"
       cx="64"
       cy="64"
       r="63.5" /></g><g
     inkscape:groupmode="layer"
     id="layer4"
     inkscape:label="img"
     style="display:inline"><g
       transform="matrix(0.73333562,0,0,0.73034011,17.067254,17.258233)"
       id="_x37__stroke-3"><g
         id="Twitter-6"><rect
           style="clip-rule:evenodd;fill:none;fill-rule:evenodd"
           y="0"
           x="0"
           height="128"
           width="128"
           id="rect952-7" /><path
           style="clip-rule:evenodd;fill:#00aaec;fill-rule:evenodd"
           inkscape:connector-curvature="0"
           d="m 128,23.294 c -4.703,2.142 -9.767,3.59 -15.079,4.237 5.424,-3.328 9.587,-8.606 11.548,-14.892 -5.079,3.082 -10.691,5.324 -16.687,6.526 -4.778,-5.231 -11.608,-8.498 -19.166,-8.498 -14.493,0 -26.251,12.057 -26.251,26.927 0,2.111 0.225,4.16 0.676,6.133 C 41.217,42.601 21.871,31.892 8.91,15.582 6.649,19.573 5.356,24.203 5.356,29.134 c 0,9.338 4.636,17.581 11.683,22.412 C 12.742,51.415 8.684,50.19 5.138,48.187 v 0.331 c 0,13.051 9.053,23.937 21.074,26.403 -2.201,0.632 -4.523,0.948 -6.92,0.948 -1.69,0 -3.343,-0.162 -4.944,-0.478 3.343,10.694 13.035,18.483 24.53,18.691 -8.986,7.227 -20.315,11.533 -32.614,11.533 -2.119,0 -4.215,-0.123 -6.266,-0.37 11.623,7.627 25.432,12.088 40.255,12.088 48.309,0 74.717,-41.026 74.717,-76.612 0,-1.171 -0.023,-2.342 -0.068,-3.49 5.134,-3.798 9.589,-8.536 13.098,-13.937"
           id="Twitter_1_-5" /></g></g></g></svg>