<?xml version="1.0" encoding="UTF-8" standalone="no"?>
<svg
   xmlns:dc="http://purl.org/dc/elements/1.1/"
   xmlns:cc="http://creativecommons.org/ns#"
   xmlns:rdf="http://www.w3.org/1999/02/22-rdf-syntax-ns#"
   xmlns:svg="http://www.w3.org/2000/svg"
   xmlns="http://www.w3.org/2000/svg"
   xmlns:sodipodi="http://sodipodi.sourceforge.net/DTD/sodipodi-0.dtd"
   xmlns:inkscape="http://www.inkscape.org/namespaces/inkscape"
   enable-background="new 0 0 128 128"
   id="Social_Icons"
   version="1.1"
   viewBox="0 0 128 128"
   xml:space="preserve"
   sodipodi:docname="youtube.svg"
   inkscape:version="0.92.4 5da689c313, 2019-01-14"><metadata
     id="metadata878"><rdf:RDF><cc:Work
         rdf:about=""><dc:format>image/svg+xml</dc:format><dc:type
           rdf:resource="http://purl.org/dc/dcmitype/StillImage" /><dc:title></dc:title></cc:Work></rdf:RDF></metadata><defs
     id="defs876" /><sodipodi:namedview
     pagecolor="#ffffff"
     bordercolor="#666666"
     borderopacity="1"
     objecttolerance="10"
     gridtolerance="10"
     guidetolerance="10"
     inkscape:pageopacity="0"
     inkscape:pageshadow="2"
     inkscape:window-width="1914"
     inkscape:window-height="1023"
     id="namedview874"
     showgrid="false"
     inkscape:zoom="4.2315921"
     inkscape:cx="32.091496"
     inkscape:cy="62.200388"
     inkscape:window-x="1920"
     inkscape:window-y="54"
     inkscape:window-maximized="0"
     inkscape:current-layer="layer1"
     inkscape:pagecheckerboard="true" /><g
     inkscape:groupmode="layer"
     id="layer1"
     inkscape:label="bg"
     style="opacity:1"><ellipse
       style="opacity:1;vector-effect:none;fill:#ffffff;fill-opacity:1;fill-rule:evenodd;stroke:none;stroke-width:87.80036163;stroke-linecap:round;stroke-linejoin:miter;stroke-miterlimit:20;stroke-dasharray:none;stroke-dashoffset:0;stroke-opacity:0.76076529;paint-order:stroke fill markers"
       id="path908"
       cx="64"
       cy="64"
       rx="62.860504"
       ry="62.860497" /></g><g
     inkscape:groupmode="layer"
     id="layer2"
     inkscape:label="img"
     style="display:inline"><g
       id="_x34__stroke"
       transform="matrix(0.73783508,0,0,0.71937276,16.778555,17.960144)"><g
         id="Youtube_1_"><rect
           height="128"
           width="128"
           id="rect868"
           x="0"
           y="0"
           style="clip-rule:evenodd;fill:none;fill-rule:evenodd" /><path
           d="m 126.72,38.224 c 0,0 -1.252,-8.883 -5.088,-12.794 -4.868,-5.136 -10.324,-5.16 -12.824,-5.458 -17.912,-1.305 -44.78,-1.305 -44.78,-1.305 h -0.056 c 0,0 -26.868,0 -44.78,1.305 C 16.688,20.27 11.236,20.294 6.364,25.43 2.528,29.342 1.28,38.224 1.28,38.224 1.28,38.224 0,48.658 0,59.087 v 9.781 c 0,10.433 1.28,20.863 1.28,20.863 0,0 1.248,8.883 5.084,12.794 4.872,5.136 11.268,4.975 14.116,5.511 10.24,0.991 43.52,1.297 43.52,1.297 0,0 26.896,-0.04 44.808,-1.345 2.5,-0.302 7.956,-0.326 12.824,-5.462 3.836,-3.912 5.088,-12.794 5.088,-12.794 0,0 1.28,-10.43 1.28,-20.864 v -9.781 c 0,-10.429 -1.28,-20.863 -1.28,-20.863 z M 50.784,80.72 50.78,44.501 85.364,62.673 Z"
           id="Youtube"
           inkscape:connector-curvature="0"
           style="clip-rule:evenodd;fill:#ce1312;fill-rule:evenodd" /></g></g></g></svg>